Coordinates
version=1
nRows=19
nColumns=24
inDegrees=yes

Units are S.I. units (second, meters, Newtons, ...)
Angles are in degrees.

endheader
time	pelvis_tilt	pelvis_list	pelvis_rotation	pelvis_tx	pelvis_ty	pelvis_tz	hip_flexion_r	hip_adduction_r	hip_rotation_r	knee_angle_r	ankle_angle_r	subtalar_angle_r	mtp_angle_r	hip_flexion_l	hip_adduction_l	hip_rotation_l	knee_angle_l	ankle_angle_l	subtalar_angle_l	mtp_angle_l	lumbar_extension	lumbar_bending	lumbar_rotation
      0.46500000	     -8.05566023	     -0.31942023	     -2.20894083	     -0.86512403	      1.02323783	      0.28667022	     37.53819083	      1.85939583	     -4.65477430	    -20.26223513	      7.47603733	      1.14618433	      8.09043355	      0.67913710	     -0.67256261	     -3.21005752	    -23.08345911	     28.70975025	     11.31619966	      3.33533923	     -4.39717532	     -1.56110190	     -0.28310459
      0.46916667	     -8.00878717	     -0.32015975	     -2.17832027	     -0.85865363	      1.02190899	      0.28693908	     37.55086883	      1.92708957	     -4.44337379	    -20.46084116	      7.43377742	      0.90570077	      8.08586919	      0.50466027	     -0.74345616	     -3.48321336	    -23.68741055	     28.83318062	     11.69950787	      3.38614466	     -4.44275116	     -1.51086012	     -0.27397625
      0.47333333	     -7.96246972	     -0.34020247	     -2.14037406	     -0.85211116	      1.02062212	      0.28718386	     37.55367808	      2.00748057	     -4.25496317	    -20.73463513	      7.38821390	      0.65806050	      8.08162348	      0.34970035	     -0.84192053	     -3.75159769	    -24.34053084	     28.94370451	     12.10327122	      3.48526096	     -4.47543236	     -1.41674993	     -0.25616135
      0.47750000	     -7.89104985	     -0.36520174	     -2.10259011	     -0.84555003	      1.01941145	      0.28744127	     37.52132205	      2.09720868	     -4.04711620	    -21.07235564	      7.33698257	      0.38282423	      8.07804508	      0.19283685	     -0.95554590	     -4.03154035	    -25.05330722	     28.99819179	     12.53301095	      3.61573238	     -4.54021301	     -1.32656150	     -0.24684332
      0.48166667	     -7.80178892	     -0.39156917	     -2.06473164	     -0.83898115	      1.01825696	      0.28770108	     37.46966696	      2.18914035	     -3.83955644	    -21.48538315	      7.28343948	      0.09618639	      8.07511909	      0.04363028	     -1.08102874	     -4.32617882	    -25.81504953	     29.01594646	     12.98010886	      3.79019849	     -4.62228358	     -1.22595667	     -0.23280196
      0.48583333	     -7.73610036	     -0.40498033	     -2.01761932	     -0.83238506	      1.01709598	      0.28795094	     37.44370823	      2.26824296	     -3.61736674	    -21.97451150	      7.26051943	     -0.23098479	      8.07286376	     -0.05285890	     -1.19387995	     -4.56220851	    -26.63598366	     28.99418659	     13.41088497	      3.96895478	     -4.67908883	     -1.12713537	     -0.22642832
      0.49000000	     -7.63764260	     -0.45692963	     -1.98032142	     -0.82573293	      1.01604031	      0.28821807	     37.36164290	      2.38878048	     -3.41027875	    -22.48633406	      7.15958834	     -0.56825540	      8.06897061	     -0.16103396	     -1.37168660	     -4.88179982	    -27.52091925	     28.91404533	     13.90685369	      4.23295892	     -4.76126600	     -0.98303893	     -0.20706152
      0.49416667	     -7.54513757	     -0.49152203	     -1.94076327	     -0.81907319	      1.01500726	      0.28849074	     37.29245095	      2.49371115	     -3.20232717	    -23.06928942	      7.07340337	     -0.96131553	      8.07174908	     -0.23172494	     -1.53140674	     -5.14542573	    -28.45443383	     28.71697259	     14.28760426	      7.97804019	     -4.82181820	     -0.86816494	     -0.12247355
      0.49833333	     -7.42571556	     -0.52743278	     -1.89902845	     -0.81242182	      1.01407156	      0.28876732	     37.18827077	      2.59927132	     -2.98851197	    -23.68925754	      7.01557205	     -1.28735077	      8.06700070	     -0.29661281	     -1.70977818	     -5.44318417	    -29.45820146	     28.49545165	     14.78594759	      8.06080824	     -4.92366430	     -0.73341344	     -0.17721215
      0.50250000	     -7.32031193	     -0.55820138	     -1.86204740	     -0.80576527	      1.01315428	      0.28907023	     37.09926216	      2.70702043	     -2.76370115	    -24.35291750	      6.94111914	     -1.68526769	      8.05802782	     -0.31240681	     -1.89072564	     -5.71568712	    -30.53003601	     28.22285690	     15.25630369	      8.20932284	     -5.00563073	     -0.61047205	     -0.16484525
      0.50666667	     -7.21267364	     -0.58817585	     -1.82106150	     -0.79909590	      1.01228930	      0.28938101	     37.00593583	      2.81395304	     -2.53399103	    -25.05401015	      6.88252555	     -2.08549947	      8.04517153	     -0.29910935	     -2.08327132	     -5.98461049	    -31.65753112	     27.88278536	     15.73334956	      8.41009481	     -5.08711597	     -0.48094873	     -0.15334413
      0.51083333	     -7.09484548	     -0.62634323	     -1.78891760	     -0.79244328	      1.01149467	      0.28970625	     36.89788271	      2.93300882	     -2.31086862	    -25.77520043	      6.82061249	     -2.50183395	      8.02494261	     -0.26222453	     -2.29537206	     -6.25653533	    -32.85213489	     27.47861129	     16.20297633	      8.69896245	     -5.18271331	     -0.33677451	     -0.13651295
      0.51500000	     -6.98537531	     -0.64847373	     -1.74160264	     -0.78581653	      1.01076072	      0.29000981	     36.80274309	      3.02835464	     -2.09511559	    -26.53393236	      6.81327316	     -2.91922252	      7.73474525	     -0.18119915	     -2.48782343	     -6.44998661	    -34.08138032	     26.88063646	     16.54399160	     12.95357423	     -5.27417620	     -0.20597316	     -0.09461654
      0.51916667	     -6.88604251	     -0.65564654	     -1.72049945	     -0.77919731	      1.01004414	      0.29037564	     36.72425959	      3.12516717	     -1.85650206	    -27.32306034	      6.83176113	     -3.26492857	      7.72417331	     -0.05887133	     -2.68036063	     -6.68943144	    -35.37664928	     26.28354273	     16.95385289	     13.01885608	     -5.33984296	     -0.10241487	     -0.11267934
      0.52333333	     -6.77215512	     -0.67437350	     -1.69450906	     -0.77261127	      1.00941326	      0.29075170	     36.62380995	      3.23220886	     -1.62573265	    -28.11569993	      6.86856597	     -3.65825418	      7.70310799	      0.09126585	     -2.89622975	     -6.90697214	    -36.74133407	     25.62188171	     17.35099141	     13.14517472	     -5.43199917	      0.02587883	     -0.10010778
      0.52750000	     -6.67202467	     -0.69157081	     -1.67528330	     -0.76604286	      1.00882868	      0.29113912	     36.53435632	      3.34185879	     -1.39191063	    -28.91696279	      6.93523247	     -4.03340087	      7.67015197	      0.28621562	     -3.11654363	     -7.11313636	    -38.14946295	     24.87977665	     17.71468398	     13.33826792	     -5.50551417	      0.15055012	     -0.08691172
      0.53166667	     -6.57518204	     -0.70101927	     -1.64585352	     -0.75951173	      1.00832460	      0.29150844	     36.44197861	      3.43651117	     -1.17566890	    -29.71774057	      7.06186570	     -4.36804611	      7.03332286	      0.52233308	     -3.32398419	     -7.25207813	    -39.59050534	     23.96193067	     17.95102247	     16.94880483	     -5.58461651	      0.27590087	     -0.06385749
      0.53583333	     -6.48041231	     -0.69052154	     -1.63156968	     -0.75303689	      1.00787223	      0.29189697	     36.35234232	      3.51884315	     -0.94262342	    -30.52495473	      7.26543953	     -4.62957739	      7.02928897	      0.79322668	     -3.50609490	     -7.36688412	    -41.07748686	     23.02472216	     18.15715027	     16.96686094	     -5.67073238	      0.37770858	     -0.05350082
      0.54000000	     -6.39821979	     -0.70769138	     -1.62301920	     -0.74658069	      1.00744538	      0.29232927	     36.26161138	      3.63306213	     -0.73066443	    -31.30858438	      7.43369386	     -4.98549294	      6.99224365	      1.11758155	     -3.74603521	     -7.53251154	    -42.63071181	     22.08437342	     18.42833967	     17.08859017	     -5.72406468	      0.50858837	     -0.03767434
